<?xml version="1.0" encoding="UTF-8"?>
<svg id="Layer_1" xmlns="http://www.w3.org/2000/svg" version="1.1" viewBox="0 0 595.28 492.43">
  <!-- Generator: Adobe Illustrator 29.0.1, SVG Export Plug-In . SVG Version: 2.1.0 Build 192)  -->
  <defs>
    <style>
      .st0, .st1 {
        fill: #fff;
      }

      .st1 {
        font-family: NotoSans-Regular, 'NotoSans Regular';
        font-size: 5.85px;
      }
    </style>
  </defs>
  <g>
    <rect class="st0" x="268.21" y="112.94" width="35.17" height="35.17"/>
    <path class="st0" d="M344.78,117.86c.01-.26.01-.53.01-.8v-4.12h-35.16v35.17h4.12c16.88,0,30.61-13.47,31.03-30.25Z"/>
    <path class="st0" d="M257.59,148.1h4.12v-35.17h-35.17v4.12c0,17.14,13.9,31.04,31.04,31.04Z"/>
    <polygon class="st0" points="303.04 248.19 303.04 153.19 268.21 153.19 268.21 183.41 268.21 248.19 303.02 248.19 303.04 248.19"/>
    <path class="st0" d="M226.88,283.52c19.24,0,34.83-15.6,34.83-34.83v-95.5h0c-19.42,0-35.17,15.74-35.17,35.17v95.17h0c.11,0,.22,0,.33,0h0Z"/>
    <path class="st0" d="M344.71,153.19h-34.83v95c.25,0,.49-.01.74-.01,10.57-.22,19.99-5.16,26.23-12.79.5-.6.98-1.23,1.43-1.87,4.05-5.69,6.43-12.64,6.43-20.16v-60.17Z"/>
    <path class="st0" d="M328.79,299.31v20.99h-4.87c-.17,0-1.83,1.91-2.41,2.29-.33.22-1.98,1.25-2.12.4,1.74.02,4.7-3.88,4.7-5.21v-15.28h-7.72v17.8c0,.08-1.68.08-1.68,0v-17.8h-7.72v17.8c0,.08-1.68.08-1.68,0v-17.8c-5.34-.21-7.72,3.69-8.08,8.55-.5,6.86.61,13.81.35,20.67,4.35-.31,7.77-3.58,7.72-8.06l24.99-.03c2.11-.01,5.57-3.23,5.57-5.18v-25.36c-3.34-.6-7.05,2.97-7.05,6.21Z"/>
    <path class="st0" d="M262.96,303.01v17.29h-4.37s0-17.79,0-17.79h-8.06v17.8h-4.7v-17.8s-7.32,0-10.95,0c-2.63,0-5.16,1.31-6.47,3.6-2.72,4.78-.92,12.46-1.39,17.56,2.81,1.01,8.06-2.38,8.06-5.21v-12.59l2.67.02s.1,15.51.35,17.78h26.36c2.42,0,6.21-4.16,6.21-6.55v-14.61h-7.72s0,.41,0,.5Z"/>
    <path class="st0" d="M293.53,302.5h-8.06v17.8l-4.37-.05v-27.15c-1.55-.33-3,.27-4.18,1.26-1.67,1.41-2.54,3.57-2.54,5.76v23.54h22.17v-3.36s-3.02,0-3.02,0v-17.8Z"/>
    <path class="st0" d="M338.53,293.1v30.56c2.27.85,6.72-2.89,6.72-4.87v-25.69h-6.72Z"/>
    <rect class="st0" x="243.48" y="325.01" width="6.72" height="6.72"/>
    <rect class="st0" x="261.36" y="325.01" width="6.72" height="6.72"/>
    <rect class="st0" x="251.21" y="325.01" width="6.72" height="6.72"/>
    <rect class="st0" x="231.17" y="293.78" width="6.72" height="6.72"/>
    <rect class="st0" x="238.9" y="293.78" width="6.72" height="6.72"/>
    <rect class="st0" x="279.76" y="325.01" width="6.72" height="6.72"/>
    <rect class="st0" x="307.3" y="294.44" width="6.72" height="6.72"/>
    <path class="st0" d="M306.29,301.16v-6.72h-6.72c.02,3.88,2.84,6.7,6.72,6.72Z"/>
    <path class="st0" d="M316.46,294.44v6.72c3.88-.02,6.7-2.84,6.72-6.72h-6.72Z"/>
  </g>
  <g>
    <path class="st0" d="M227.84,350.82c.79.49,1.94.89,3.16.89,1.8,0,2.85-.95,2.85-2.33,0-1.28-.73-2-2.57-2.71-2.23-.79-3.6-1.94-3.6-3.87,0-2.13,1.76-3.71,4.41-3.71,1.4,0,2.41.32,3.02.67l-.49,1.44c-.45-.24-1.36-.65-2.59-.65-1.86,0-2.57,1.11-2.57,2.04,0,1.28.83,1.9,2.71,2.63,2.31.89,3.48,2,3.48,4.01,0,2.11-1.56,3.93-4.78,3.93-1.32,0-2.75-.38-3.48-.87l.45-1.48Z"/>
    <path class="st0" d="M242.86,339.32v5.71h6.6v-5.71h1.78v13.65h-1.78v-6.4h-6.6v6.4h-1.76v-13.65h1.76Z"/>
    <path class="st0" d="M259.55,348.68l-1.42,4.29h-1.82l4.64-13.65h2.13l4.66,13.65h-1.88l-1.46-4.29h-4.84ZM264.02,347.3l-1.34-3.93c-.3-.89-.51-1.7-.71-2.49h-.04c-.2.81-.43,1.64-.69,2.47l-1.34,3.95h4.11Z"/>
    <path class="st0" d="M272.77,339.51c.77-.16,1.98-.28,3.22-.28,1.76,0,2.9.3,3.75.99.71.53,1.13,1.34,1.13,2.41,0,1.32-.87,2.47-2.31,3v.04c1.3.32,2.81,1.4,2.81,3.42,0,1.17-.47,2.07-1.15,2.73-.95.87-2.49,1.28-4.72,1.28-1.21,0-2.15-.08-2.73-.16v-13.42ZM274.53,345.09h1.6c1.86,0,2.96-.97,2.96-2.29,0-1.6-1.21-2.23-3-2.23-.81,0-1.28.06-1.56.12v4.39ZM274.53,351.63c.34.06.85.08,1.48.08,1.82,0,3.5-.67,3.5-2.65,0-1.86-1.6-2.63-3.52-2.63h-1.46v5.2Z"/>
    <path class="st0" d="M288.98,348.68l-1.42,4.29h-1.82l4.64-13.65h2.13l4.66,13.65h-1.88l-1.46-4.29h-4.84ZM293.46,347.3l-1.34-3.93c-.3-.89-.51-1.7-.71-2.49h-.04c-.2.81-.43,1.64-.69,2.47l-1.34,3.95h4.11Z"/>
    <path class="st0" d="M302.2,339.51c.77-.16,1.98-.28,3.22-.28,1.76,0,2.9.3,3.75.99.71.53,1.13,1.34,1.13,2.41,0,1.32-.87,2.47-2.31,3v.04c1.3.32,2.81,1.4,2.81,3.42,0,1.17-.47,2.07-1.15,2.73-.95.87-2.49,1.28-4.72,1.28-1.21,0-2.15-.08-2.73-.16v-13.42ZM303.97,345.09h1.6c1.86,0,2.96-.97,2.96-2.29,0-1.6-1.21-2.23-3-2.23-.81,0-1.28.06-1.56.12v4.39ZM303.97,351.63c.34.06.85.08,1.48.08,1.82,0,3.5-.67,3.5-2.65,0-1.86-1.6-2.63-3.52-2.63h-1.46v5.2Z"/>
    <path class="st0" d="M317.98,339.32v13.65h-1.76v-13.65h1.76Z"/>
    <path class="st0" d="M326.3,348.68l-1.42,4.29h-1.82l4.64-13.65h2.13l4.66,13.65h-1.88l-1.46-4.29h-4.84ZM330.77,347.3l-1.34-3.93c-.3-.89-.51-1.7-.71-2.49h-.04c-.2.81-.43,1.64-.69,2.47l-1.34,3.95h4.11Z"/>
  </g>
  <text class="st1" transform="translate(308.48 329.48)"><tspan x="0" y="0">RTS</tspan></text>
  <g>
    <path class="st0" d="M330.49,278.81h3.86v.78h-2.94v2.38h2.71v.77h-2.71v3.24h-.92v-7.17Z"/>
    <path class="st0" d="M341.52,282.83c-.05-1-.12-2.2-.11-3.09h-.03c-.24.84-.54,1.73-.9,2.72l-1.27,3.48h-.7l-1.16-3.41c-.34-1.01-.63-1.94-.83-2.79h-.02c-.02.89-.07,2.1-.14,3.17l-.19,3.07h-.88l.5-7.17h1.18l1.22,3.47c.3.88.54,1.67.72,2.41h.03c.18-.72.44-1.51.75-2.41l1.28-3.47h1.18l.45,7.17h-.9l-.18-3.15Z"/>
  </g>
</svg>